<?xml version="1.0" encoding="UTF-8" standalone="no"?>
<svg width="1440px" height="1024px" viewBox="0 0 1440 1024" version="1.1" xmlns="http://www.w3.org/2000/svg" xmlns:xlink="http://www.w3.org/1999/xlink">
    <!-- Generator: Sketch 3.6.1 (26313) - http://www.bohemiancoding.com/sketch -->
    <title>Lines</title>
    <desc>Created with Sketch.</desc>
    <defs></defs>
    <g id="Website" stroke="none" stroke-width="1" fill="none" fill-rule="evenodd" stroke-linecap="square">
        <g id="Main-page" stroke="#E2E5EC">
            <path d="M1530.46101,145.207643 L-84.5451546,882.480377 L-85,882.68802 L-84.5847136,883.597711 L-84.1298682,883.390068 L1530.8763,146.117334 L1531.33114,145.909691 L1530.91586,145 L1530.46101,145.207643 Z M1530.46101,375.207643 L-84.5451546,1112.48038 L-85,1112.68802 L-84.5847136,1113.59771 L-84.1298682,1113.39007 L1530.8763,376.117334 L1531.33114,375.909691 L1530.91586,375 L1530.46101,375.207643 Z M1526.46101,591.207643 L-88.5451546,1328.48038 L-89,1328.68802 L-88.5847136,1329.59771 L-88.1298682,1329.39007 L1526.8763,592.117334 L1527.33114,591.909691 L1526.91586,591 L1526.46101,591.207643 Z M1526.46101,811.207643 L-88.5451546,1548.48038 L-89,1548.68802 L-88.5847136,1549.59771 L-88.1298682,1549.39007 L1526.8763,812.117334 L1527.33114,811.909691 L1526.91586,811 L1526.46101,811.207643 Z M1526.46101,1021.20764 L-88.5451546,1758.48038 L-89,1758.68802 L-88.5847136,1759.59771 L-88.1298682,1759.39007 L1526.8763,1022.11733 L1527.33114,1021.90969 L1526.91586,1021 L1526.46101,1021.20764 Z M1528.46101,-734.792357 L-86.5451546,2.48037709 L-87,2.68802031 L-86.5847136,3.59771101 L-86.1298682,3.39006779 L1528.8763,-733.882666 L1529.33114,-734.090309 L1528.91586,-735 L1528.46101,-734.792357 Z M1528.46101,-504.792357 L-86.5451546,232.480377 L-87,232.68802 L-86.5847136,233.597711 L-86.1298682,233.390068 L1528.8763,-503.882666 L1529.33114,-504.090309 L1528.91586,-505 L1528.46101,-504.792357 Z M1524.46101,-288.792357 L-90.5451546,448.480377 L-91,448.68802 L-90.5847136,449.597711 L-90.1298682,449.390068 L1524.8763,-287.882666 L1525.33114,-288.090309 L1524.91586,-289 L1524.46101,-288.792357 Z M1524.46101,-68.7923568 L-90.5451546,668.480377 L-91,668.68802 L-90.5847136,669.597711 L-90.1298682,669.390068 L1524.8763,-67.8826661 L1525.33114,-68.0903093 L1524.91586,-69 L1524.46101,-68.7923568 Z" id="Lines"></path>
        </g>
    </g>
</svg>